<svg xmlns="http://www.w3.org/2000/svg" xmlns:xlink="http://www.w3.org/1999/xlink" width="500" zoomAndPan="magnify" viewBox="0 0 375 374.999991" height="500" preserveAspectRatio="xMidYMid meet" version="1.0"><defs><g/><clipPath id="28b717dd36"><path d="M 89.617188 131.25 L 282.976562 131.25 L 282.976562 243.75 L 89.617188 243.75 Z M 89.617188 131.25 " clip-rule="nonzero"/></clipPath><clipPath id="58d6a46d3f"><path d="M 106.867188 131.25 L 265.417969 131.25 C 269.992188 131.25 274.382812 133.066406 277.617188 136.300781 C 280.851562 139.539062 282.667969 143.925781 282.667969 148.5 L 282.667969 226.5 C 282.667969 231.074219 280.851562 235.460938 277.617188 238.699219 C 274.382812 241.933594 269.992188 243.75 265.417969 243.75 L 106.867188 243.75 C 102.289062 243.75 97.902344 241.933594 94.667969 238.699219 C 91.433594 235.460938 89.617188 231.074219 89.617188 226.5 L 89.617188 148.5 C 89.617188 143.925781 91.433594 139.539062 94.667969 136.300781 C 97.902344 133.066406 102.289062 131.25 106.867188 131.25 Z M 106.867188 131.25 " clip-rule="nonzero"/></clipPath></defs><rect x="-37.5" width="450" fill="#ffffff" y="-37.499999" height="449.999989" fill-opacity="1"/><rect x="-37.5" width="450" fill="#000000" y="-37.499999" height="449.999989" fill-opacity="1"/><g fill="#000000" fill-opacity="1"><g transform="translate(122.019363, 200.47235)"><g><path d="M 22.859375 -7.8125 L 9.609375 -7.8125 L 5.703125 0 L -2.703125 0 L 17.5625 -37.953125 L 24.625 -37.953125 L 31.84375 0 L 24.0625 0 Z M 12.75 -14.15625 L 21.890625 -14.15625 L 19.75 -28.28125 Z M 12.75 -14.15625 "/></g></g></g><g fill="#000000" fill-opacity="1"><g transform="translate(154.611492, 200.47235)"><g><path d="M 8.671875 0 L 1.046875 0 L 7.609375 -37.953125 L 15.25 -37.953125 Z M 8.671875 0 "/></g></g></g><g fill="#ff914d" fill-opacity="1"><g transform="translate(165.621394, 199.435681)"><g><path d="M 15.796875 0.515625 C 13.273438 0.460938 11.050781 -0.128906 9.125 -1.265625 C 7.207031 -2.398438 5.6875 -4.039062 4.5625 -6.1875 C 3.445312 -8.332031 2.800781 -10.796875 2.625 -13.578125 C 2.4375 -16.429688 2.742188 -19.472656 3.546875 -22.703125 C 4.347656 -25.929688 5.632812 -28.769531 7.40625 -31.21875 C 9.175781 -33.664062 11.253906 -35.5 13.640625 -36.71875 C 16.035156 -37.9375 18.617188 -38.519531 21.390625 -38.46875 C 23.953125 -38.414062 26.1875 -37.8125 28.09375 -36.65625 C 30.007812 -35.5 31.515625 -33.835938 32.609375 -31.671875 C 33.703125 -29.515625 34.328125 -27.0625 34.484375 -24.3125 C 34.648438 -21.257812 34.316406 -18.113281 33.484375 -14.875 C 32.648438 -11.644531 31.351562 -8.847656 29.59375 -6.484375 C 27.84375 -4.117188 25.789062 -2.347656 23.4375 -1.171875 C 21.082031 0.00390625 18.535156 0.566406 15.796875 0.515625 Z M 26.609375 -20.015625 L 26.8125 -22.484375 C 26.988281 -25.578125 26.578125 -27.921875 25.578125 -29.515625 C 24.578125 -31.117188 23.0625 -31.957031 21.03125 -32.03125 C 17.851562 -32.132812 15.328125 -30.726562 13.453125 -27.8125 C 11.585938 -24.894531 10.535156 -20.8125 10.296875 -15.5625 C 10.117188 -12.488281 10.523438 -10.117188 11.515625 -8.453125 C 12.503906 -6.796875 14.039062 -5.929688 16.125 -5.859375 C 18.851562 -5.742188 21.113281 -6.8125 22.90625 -9.0625 C 24.695312 -11.3125 25.867188 -14.492188 26.421875 -18.609375 Z M 26.609375 -20.015625 "/></g></g></g><g fill="#ff914d" fill-opacity="1"><g transform="translate(199.126092, 199.435681)"><g><path d="M 12.4375 -5.53125 C 13.789062 -5.488281 14.914062 -5.851562 15.8125 -6.625 C 16.71875 -7.40625 17.3125 -8.4375 17.59375 -9.71875 L 24.5 -9.75 C 24.375 -7.769531 23.75 -5.988281 22.625 -4.40625 C 21.507812 -2.820312 20.015625 -1.585938 18.140625 -0.703125 C 16.273438 0.179688 14.3125 0.597656 12.25 0.546875 C 8.820312 0.492188 6.109375 -0.6875 4.109375 -3 C 2.117188 -5.3125 1.15625 -8.382812 1.21875 -12.21875 L 1.296875 -13.65625 L 1.328125 -13.9375 C 1.796875 -18.53125 3.34375 -22.164062 5.96875 -24.84375 C 8.59375 -27.53125 11.832031 -28.820312 15.6875 -28.71875 C 18.863281 -28.644531 21.382812 -27.601562 23.25 -25.59375 C 25.125 -23.59375 26.046875 -20.953125 26.015625 -17.671875 L 19.15625 -17.671875 C 19.15625 -19.179688 18.820312 -20.367188 18.15625 -21.234375 C 17.5 -22.109375 16.507812 -22.578125 15.1875 -22.640625 C 11.675781 -22.742188 9.550781 -20.179688 8.8125 -14.953125 C 8.550781 -13.066406 8.453125 -11.472656 8.515625 -10.171875 C 8.691406 -7.128906 10 -5.582031 12.4375 -5.53125 Z M 12.4375 -5.53125 "/></g></g></g><g fill="#ff914d" fill-opacity="1"><g transform="translate(223.874938, 199.435681)"><g><path d="M 14.984375 -35.125 L 13.765625 -28.203125 L 18.453125 -28.203125 L 17.484375 -22.671875 L 12.796875 -22.671875 L 10.40625 -8.546875 C 10.300781 -7.660156 10.367188 -6.984375 10.609375 -6.515625 C 10.847656 -6.046875 11.4375 -5.796875 12.375 -5.765625 C 12.65625 -5.742188 13.40625 -5.785156 14.625 -5.890625 L 14.09375 -0.125 C 12.789062 0.300781 11.382812 0.5 9.875 0.46875 C 7.457031 0.4375 5.65625 -0.316406 4.46875 -1.796875 C 3.289062 -3.273438 2.804688 -5.273438 3.015625 -7.796875 L 5.453125 -22.671875 L 1.453125 -22.671875 L 2.421875 -28.203125 L 6.40625 -28.203125 L 7.609375 -35.125 Z M 14.984375 -35.125 "/></g></g></g><g fill="#004aad" fill-opacity="1"><g transform="translate(107.27999, 219.307793)"><g><path d="M 4.09375 0.21875 C 2.945312 0.21875 2.054688 -0.117188 1.421875 -0.796875 C 0.796875 -1.472656 0.484375 -2.390625 0.484375 -3.546875 C 0.484375 -4.585938 0.6875 -5.539062 1.09375 -6.40625 C 1.507812 -7.269531 2.09375 -7.96875 2.84375 -8.5 C 3.601562 -9.03125 4.488281 -9.296875 5.5 -9.296875 C 6.332031 -9.296875 7.03125 -9.117188 7.59375 -8.765625 C 8.15625 -8.410156 8.59375 -7.90625 8.90625 -7.25 L 7.375 -6.71875 C 7.25 -7.082031 7.007812 -7.375 6.65625 -7.59375 C 6.300781 -7.8125 5.890625 -7.921875 5.421875 -7.921875 C 4.722656 -7.921875 4.132812 -7.71875 3.65625 -7.3125 C 3.175781 -6.914062 2.804688 -6.390625 2.546875 -5.734375 C 2.296875 -5.078125 2.171875 -4.375 2.171875 -3.625 C 2.171875 -2.925781 2.335938 -2.335938 2.671875 -1.859375 C 3.015625 -1.378906 3.601562 -1.140625 4.4375 -1.140625 C 4.945312 -1.140625 5.390625 -1.242188 5.765625 -1.453125 C 6.140625 -1.671875 6.460938 -1.96875 6.734375 -2.34375 L 8.03125 -1.828125 C 7.613281 -1.148438 7.054688 -0.640625 6.359375 -0.296875 C 5.671875 0.046875 4.914062 0.21875 4.09375 0.21875 Z M 4.09375 0.21875 "/></g></g></g><g fill="#004aad" fill-opacity="1"><g transform="translate(116.402145, 219.307793)"><g><path d="M 0.140625 0 L 2.078125 -9.140625 L 3.25 -9.140625 L 3.390625 -7.4375 C 3.773438 -7.96875 4.222656 -8.410156 4.734375 -8.765625 C 5.242188 -9.117188 5.953125 -9.296875 6.859375 -9.296875 L 7.0625 -9.296875 L 6.71875 -7.65625 C 6.363281 -7.664062 6.039062 -7.644531 5.75 -7.59375 C 4.8125 -7.445312 4.09375 -7.03125 3.59375 -6.34375 C 3.101562 -5.664062 2.75 -4.8125 2.53125 -3.78125 L 1.734375 0 Z M 0.140625 0 "/></g></g></g><g fill="#004aad" fill-opacity="1"><g transform="translate(122.90744, 219.307793)"><g><path d="M 4.390625 0.21875 C 3.179688 0.21875 2.226562 -0.128906 1.53125 -0.828125 C 0.84375 -1.523438 0.5 -2.472656 0.5 -3.671875 C 0.5 -4.734375 0.707031 -5.6875 1.125 -6.53125 C 1.550781 -7.382812 2.15625 -8.054688 2.9375 -8.546875 C 3.71875 -9.046875 4.640625 -9.296875 5.703125 -9.296875 C 6.523438 -9.296875 7.207031 -9.128906 7.75 -8.796875 C 8.289062 -8.460938 8.695312 -8.007812 8.96875 -7.4375 C 9.25 -6.863281 9.390625 -6.226562 9.390625 -5.53125 C 9.390625 -5.09375 9.332031 -4.628906 9.21875 -4.140625 L 2.140625 -4.140625 C 2.128906 -4.054688 2.125 -3.972656 2.125 -3.890625 C 2.125 -3.804688 2.125 -3.71875 2.125 -3.625 C 2.125 -3 2.242188 -2.503906 2.484375 -2.140625 C 2.722656 -1.785156 3.03125 -1.53125 3.40625 -1.375 C 3.789062 -1.21875 4.179688 -1.140625 4.578125 -1.140625 C 5.085938 -1.140625 5.523438 -1.222656 5.890625 -1.390625 C 6.265625 -1.554688 6.582031 -1.773438 6.84375 -2.046875 L 8.28125 -1.609375 C 7.863281 -1.066406 7.332031 -0.625 6.6875 -0.28125 C 6.039062 0.0507812 5.273438 0.21875 4.390625 0.21875 Z M 2.359375 -5.40625 L 7.765625 -5.40625 C 7.773438 -5.46875 7.78125 -5.519531 7.78125 -5.5625 C 7.78125 -5.613281 7.78125 -5.664062 7.78125 -5.71875 C 7.78125 -6.082031 7.703125 -6.4375 7.546875 -6.78125 C 7.390625 -7.125 7.144531 -7.40625 6.8125 -7.625 C 6.476562 -7.851562 6.03125 -7.96875 5.46875 -7.96875 C 5.019531 -7.96875 4.578125 -7.867188 4.140625 -7.671875 C 3.710938 -7.472656 3.335938 -7.179688 3.015625 -6.796875 C 2.703125 -6.421875 2.484375 -5.957031 2.359375 -5.40625 Z M 2.359375 -5.40625 "/></g></g></g><g fill="#004aad" fill-opacity="1"><g transform="translate(132.895747, 219.307793)"><g><path d="M 2.84375 0.21875 C 2.050781 0.21875 1.394531 0.00390625 0.875 -0.421875 C 0.351562 -0.847656 0.09375 -1.425781 0.09375 -2.15625 C 0.09375 -2.769531 0.253906 -3.28125 0.578125 -3.6875 C 0.898438 -4.09375 1.320312 -4.414062 1.84375 -4.65625 C 2.375 -4.90625 2.941406 -5.09375 3.546875 -5.21875 C 4.160156 -5.351562 4.753906 -5.453125 5.328125 -5.515625 C 5.898438 -5.578125 6.398438 -5.628906 6.828125 -5.671875 C 6.859375 -5.847656 6.882812 -6.007812 6.90625 -6.15625 C 6.9375 -6.300781 6.953125 -6.441406 6.953125 -6.578125 C 6.953125 -7.546875 6.382812 -8.03125 5.25 -8.03125 C 4.6875 -8.03125 4.207031 -7.90625 3.8125 -7.65625 C 3.414062 -7.40625 3.113281 -7.0625 2.90625 -6.625 L 1.53125 -7.046875 C 1.851562 -7.734375 2.320312 -8.28125 2.9375 -8.6875 C 3.550781 -9.09375 4.300781 -9.296875 5.1875 -9.296875 C 6.25 -9.296875 7.066406 -9.078125 7.640625 -8.640625 C 8.222656 -8.210938 8.515625 -7.550781 8.515625 -6.65625 C 8.515625 -6.445312 8.5 -6.238281 8.46875 -6.03125 C 8.4375 -5.820312 8.378906 -5.523438 8.296875 -5.140625 C 8.222656 -4.765625 8.109375 -4.207031 7.953125 -3.46875 C 7.785156 -2.707031 7.675781 -2.046875 7.625 -1.484375 C 7.570312 -0.921875 7.535156 -0.425781 7.515625 0 L 6.0625 0 L 5.984375 -1.15625 C 5.585938 -0.707031 5.144531 -0.363281 4.65625 -0.125 C 4.164062 0.101562 3.5625 0.21875 2.84375 0.21875 Z M 3.34375 -1.046875 C 4.175781 -1.046875 4.890625 -1.328125 5.484375 -1.890625 C 6.078125 -2.453125 6.457031 -3.195312 6.625 -4.125 L 6.671875 -4.4375 C 5.648438 -4.34375 4.773438 -4.226562 4.046875 -4.09375 C 3.328125 -3.96875 2.773438 -3.769531 2.390625 -3.5 C 2.015625 -3.226562 1.828125 -2.828125 1.828125 -2.296875 C 1.828125 -1.878906 1.972656 -1.566406 2.265625 -1.359375 C 2.554688 -1.148438 2.914062 -1.046875 3.34375 -1.046875 Z M 3.34375 -1.046875 "/></g></g></g><g fill="#004aad" fill-opacity="1"><g transform="translate(142.497045, 219.307793)"><g><path d="M 2.953125 0 C 2.234375 0 1.742188 -0.0976562 1.484375 -0.296875 C 1.222656 -0.503906 1.09375 -0.816406 1.09375 -1.234375 C 1.09375 -1.503906 1.148438 -1.921875 1.265625 -2.484375 L 2.4375 -7.890625 L 0.90625 -7.890625 L 1.15625 -9.140625 L 2.6875 -9.140625 L 3.1875 -11.4375 L 4.78125 -11.4375 L 4.28125 -9.140625 L 6.03125 -9.140625 L 5.765625 -7.890625 L 4.015625 -7.890625 L 2.953125 -2.9375 C 2.898438 -2.707031 2.859375 -2.503906 2.828125 -2.328125 C 2.796875 -2.148438 2.78125 -2.015625 2.78125 -1.921875 C 2.78125 -1.722656 2.832031 -1.582031 2.9375 -1.5 C 3.050781 -1.414062 3.265625 -1.375 3.578125 -1.375 L 4.390625 -1.375 L 4.09375 0 Z M 2.953125 0 "/></g></g></g><g fill="#004aad" fill-opacity="1"><g transform="translate(148.467917, 219.307793)"><g><path d="M 4.390625 0.21875 C 3.179688 0.21875 2.226562 -0.128906 1.53125 -0.828125 C 0.84375 -1.523438 0.5 -2.472656 0.5 -3.671875 C 0.5 -4.734375 0.707031 -5.6875 1.125 -6.53125 C 1.550781 -7.382812 2.15625 -8.054688 2.9375 -8.546875 C 3.71875 -9.046875 4.640625 -9.296875 5.703125 -9.296875 C 6.523438 -9.296875 7.207031 -9.128906 7.75 -8.796875 C 8.289062 -8.460938 8.695312 -8.007812 8.96875 -7.4375 C 9.25 -6.863281 9.390625 -6.226562 9.390625 -5.53125 C 9.390625 -5.09375 9.332031 -4.628906 9.21875 -4.140625 L 2.140625 -4.140625 C 2.128906 -4.054688 2.125 -3.972656 2.125 -3.890625 C 2.125 -3.804688 2.125 -3.71875 2.125 -3.625 C 2.125 -3 2.242188 -2.503906 2.484375 -2.140625 C 2.722656 -1.785156 3.03125 -1.53125 3.40625 -1.375 C 3.789062 -1.21875 4.179688 -1.140625 4.578125 -1.140625 C 5.085938 -1.140625 5.523438 -1.222656 5.890625 -1.390625 C 6.265625 -1.554688 6.582031 -1.773438 6.84375 -2.046875 L 8.28125 -1.609375 C 7.863281 -1.066406 7.332031 -0.625 6.6875 -0.28125 C 6.039062 0.0507812 5.273438 0.21875 4.390625 0.21875 Z M 2.359375 -5.40625 L 7.765625 -5.40625 C 7.773438 -5.46875 7.78125 -5.519531 7.78125 -5.5625 C 7.78125 -5.613281 7.78125 -5.664062 7.78125 -5.71875 C 7.78125 -6.082031 7.703125 -6.4375 7.546875 -6.78125 C 7.390625 -7.125 7.144531 -7.40625 6.8125 -7.625 C 6.476562 -7.851562 6.03125 -7.96875 5.46875 -7.96875 C 5.019531 -7.96875 4.578125 -7.867188 4.140625 -7.671875 C 3.710938 -7.472656 3.335938 -7.179688 3.015625 -6.796875 C 2.703125 -6.421875 2.484375 -5.957031 2.359375 -5.40625 Z M 2.359375 -5.40625 "/></g></g></g><g fill="#004aad" fill-opacity="1"><g transform="translate(158.456223, 219.307793)"><g/></g></g><g fill="#004aad" fill-opacity="1"><g transform="translate(163.616235, 219.307793)"><g><path d="M 4.21875 -10.890625 C 3.914062 -10.890625 3.648438 -11.003906 3.421875 -11.234375 C 3.191406 -11.460938 3.078125 -11.734375 3.078125 -12.046875 C 3.078125 -12.359375 3.191406 -12.628906 3.421875 -12.859375 C 3.648438 -13.085938 3.914062 -13.203125 4.21875 -13.203125 C 4.539062 -13.203125 4.816406 -13.085938 5.046875 -12.859375 C 5.273438 -12.628906 5.390625 -12.359375 5.390625 -12.046875 C 5.390625 -11.734375 5.273438 -11.460938 5.046875 -11.234375 C 4.816406 -11.003906 4.539062 -10.890625 4.21875 -10.890625 Z M 0.84375 0 L 2.53125 -7.890625 L 1.046875 -7.890625 L 1.3125 -9.140625 L 4.375 -9.140625 L 2.4375 0 Z M 0.84375 0 "/></g></g></g><g fill="#004aad" fill-opacity="1"><g transform="translate(168.591956, 219.307793)"><g><path d="M 0.140625 0 L 2.078125 -9.140625 L 3.265625 -9.140625 L 3.375 -7.875 C 3.675781 -8.269531 4.078125 -8.601562 4.578125 -8.875 C 5.078125 -9.15625 5.738281 -9.296875 6.5625 -9.296875 C 7.332031 -9.296875 7.9375 -9.082031 8.375 -8.65625 C 8.8125 -8.238281 9.03125 -7.597656 9.03125 -6.734375 C 9.03125 -6.316406 8.976562 -5.835938 8.875 -5.296875 L 7.71875 0 L 6.15625 0 L 7.25 -5.140625 C 7.351562 -5.679688 7.40625 -6.125 7.40625 -6.46875 C 7.40625 -7.007812 7.28125 -7.382812 7.03125 -7.59375 C 6.789062 -7.8125 6.40625 -7.921875 5.875 -7.921875 C 5.4375 -7.921875 5.007812 -7.820312 4.59375 -7.625 C 4.175781 -7.4375 3.800781 -7.109375 3.46875 -6.640625 C 3.144531 -6.171875 2.898438 -5.535156 2.734375 -4.734375 L 1.734375 0 Z M 0.140625 0 "/></g></g></g><g fill="#004aad" fill-opacity="1"><g transform="translate(178.727689, 219.307793)"><g><path d="M 2.953125 0 C 2.234375 0 1.742188 -0.0976562 1.484375 -0.296875 C 1.222656 -0.503906 1.09375 -0.816406 1.09375 -1.234375 C 1.09375 -1.503906 1.148438 -1.921875 1.265625 -2.484375 L 2.4375 -7.890625 L 0.90625 -7.890625 L 1.15625 -9.140625 L 2.6875 -9.140625 L 3.1875 -11.4375 L 4.78125 -11.4375 L 4.28125 -9.140625 L 6.03125 -9.140625 L 5.765625 -7.890625 L 4.015625 -7.890625 L 2.953125 -2.9375 C 2.898438 -2.707031 2.859375 -2.503906 2.828125 -2.328125 C 2.796875 -2.148438 2.78125 -2.015625 2.78125 -1.921875 C 2.78125 -1.722656 2.832031 -1.582031 2.9375 -1.5 C 3.050781 -1.414062 3.265625 -1.375 3.578125 -1.375 L 4.390625 -1.375 L 4.09375 0 Z M 2.953125 0 "/></g></g></g><g fill="#004aad" fill-opacity="1"><g transform="translate(184.69856, 219.307793)"><g><path d="M 4.390625 0.21875 C 3.179688 0.21875 2.226562 -0.128906 1.53125 -0.828125 C 0.84375 -1.523438 0.5 -2.472656 0.5 -3.671875 C 0.5 -4.734375 0.707031 -5.6875 1.125 -6.53125 C 1.550781 -7.382812 2.15625 -8.054688 2.9375 -8.546875 C 3.71875 -9.046875 4.640625 -9.296875 5.703125 -9.296875 C 6.523438 -9.296875 7.207031 -9.128906 7.75 -8.796875 C 8.289062 -8.460938 8.695312 -8.007812 8.96875 -7.4375 C 9.25 -6.863281 9.390625 -6.226562 9.390625 -5.53125 C 9.390625 -5.09375 9.332031 -4.628906 9.21875 -4.140625 L 2.140625 -4.140625 C 2.128906 -4.054688 2.125 -3.972656 2.125 -3.890625 C 2.125 -3.804688 2.125 -3.71875 2.125 -3.625 C 2.125 -3 2.242188 -2.503906 2.484375 -2.140625 C 2.722656 -1.785156 3.03125 -1.53125 3.40625 -1.375 C 3.789062 -1.21875 4.179688 -1.140625 4.578125 -1.140625 C 5.085938 -1.140625 5.523438 -1.222656 5.890625 -1.390625 C 6.265625 -1.554688 6.582031 -1.773438 6.84375 -2.046875 L 8.28125 -1.609375 C 7.863281 -1.066406 7.332031 -0.625 6.6875 -0.28125 C 6.039062 0.0507812 5.273438 0.21875 4.390625 0.21875 Z M 2.359375 -5.40625 L 7.765625 -5.40625 C 7.773438 -5.46875 7.78125 -5.519531 7.78125 -5.5625 C 7.78125 -5.613281 7.78125 -5.664062 7.78125 -5.71875 C 7.78125 -6.082031 7.703125 -6.4375 7.546875 -6.78125 C 7.390625 -7.125 7.144531 -7.40625 6.8125 -7.625 C 6.476562 -7.851562 6.03125 -7.96875 5.46875 -7.96875 C 5.019531 -7.96875 4.578125 -7.867188 4.140625 -7.671875 C 3.710938 -7.472656 3.335938 -7.179688 3.015625 -6.796875 C 2.703125 -6.421875 2.484375 -5.957031 2.359375 -5.40625 Z M 2.359375 -5.40625 "/></g></g></g><g fill="#004aad" fill-opacity="1"><g transform="translate(194.686867, 219.307793)"><g><path d="M 2.328125 0 C 1.609375 0 1.125 -0.0976562 0.875 -0.296875 C 0.625 -0.503906 0.5 -0.816406 0.5 -1.234375 C 0.5 -1.566406 0.539062 -1.921875 0.625 -2.296875 L 2.75 -12.3125 L 4.328125 -12.3125 L 2.265625 -2.578125 C 2.242188 -2.441406 2.222656 -2.316406 2.203125 -2.203125 C 2.179688 -2.097656 2.171875 -2.003906 2.171875 -1.921875 C 2.171875 -1.734375 2.222656 -1.59375 2.328125 -1.5 C 2.441406 -1.414062 2.65625 -1.375 2.96875 -1.375 L 3.65625 -1.375 L 3.359375 0 Z M 2.328125 0 "/></g></g></g><g fill="#004aad" fill-opacity="1"><g transform="translate(199.45987, 219.307793)"><g><path d="M 2.328125 0 C 1.609375 0 1.125 -0.0976562 0.875 -0.296875 C 0.625 -0.503906 0.5 -0.816406 0.5 -1.234375 C 0.5 -1.566406 0.539062 -1.921875 0.625 -2.296875 L 2.75 -12.3125 L 4.328125 -12.3125 L 2.265625 -2.578125 C 2.242188 -2.441406 2.222656 -2.316406 2.203125 -2.203125 C 2.179688 -2.097656 2.171875 -2.003906 2.171875 -1.921875 C 2.171875 -1.734375 2.222656 -1.59375 2.328125 -1.5 C 2.441406 -1.414062 2.65625 -1.375 2.96875 -1.375 L 3.65625 -1.375 L 3.359375 0 Z M 2.328125 0 "/></g></g></g><g fill="#004aad" fill-opacity="1"><g transform="translate(204.232873, 219.307793)"><g><path d="M 4.21875 -10.890625 C 3.914062 -10.890625 3.648438 -11.003906 3.421875 -11.234375 C 3.191406 -11.460938 3.078125 -11.734375 3.078125 -12.046875 C 3.078125 -12.359375 3.191406 -12.628906 3.421875 -12.859375 C 3.648438 -13.085938 3.914062 -13.203125 4.21875 -13.203125 C 4.539062 -13.203125 4.816406 -13.085938 5.046875 -12.859375 C 5.273438 -12.628906 5.390625 -12.359375 5.390625 -12.046875 C 5.390625 -11.734375 5.273438 -11.460938 5.046875 -11.234375 C 4.816406 -11.003906 4.539062 -10.890625 4.21875 -10.890625 Z M 0.84375 0 L 2.53125 -7.890625 L 1.046875 -7.890625 L 1.3125 -9.140625 L 4.375 -9.140625 L 2.4375 0 Z M 0.84375 0 "/></g></g></g><g fill="#004aad" fill-opacity="1"><g transform="translate(209.208594, 219.307793)"><g><path d="M 3.3125 3.5 C 2.539062 3.5 1.835938 3.3125 1.203125 2.9375 C 0.578125 2.570312 0.148438 2.070312 -0.078125 1.4375 L 1.578125 0.984375 C 1.640625 1.273438 1.820312 1.539062 2.125 1.78125 C 2.4375 2.03125 2.867188 2.15625 3.421875 2.15625 C 4.078125 2.15625 4.59375 2.039062 4.96875 1.8125 C 5.351562 1.582031 5.644531 1.269531 5.84375 0.875 C 6.039062 0.488281 6.195312 0.0546875 6.3125 -0.421875 L 6.546875 -1.46875 C 6.234375 -1.082031 5.851562 -0.789062 5.40625 -0.59375 C 4.96875 -0.394531 4.507812 -0.296875 4.03125 -0.296875 C 3.46875 -0.296875 2.921875 -0.429688 2.390625 -0.703125 C 1.867188 -0.984375 1.4375 -1.40625 1.09375 -1.96875 C 0.757812 -2.539062 0.59375 -3.25 0.59375 -4.09375 C 0.59375 -5.039062 0.765625 -5.910156 1.109375 -6.703125 C 1.460938 -7.492188 1.960938 -8.128906 2.609375 -8.609375 C 3.253906 -9.085938 4.019531 -9.328125 4.90625 -9.328125 C 5.550781 -9.328125 6.144531 -9.179688 6.6875 -8.890625 C 7.226562 -8.609375 7.617188 -8.210938 7.859375 -7.703125 L 8.59375 -9.140625 L 9.734375 -9.140625 C 9.441406 -7.765625 9.148438 -6.390625 8.859375 -5.015625 C 8.566406 -3.640625 8.273438 -2.253906 7.984375 -0.859375 C 7.921875 -0.585938 7.847656 -0.265625 7.765625 0.109375 C 7.679688 0.492188 7.546875 0.878906 7.359375 1.265625 C 7.179688 1.660156 6.929688 2.023438 6.609375 2.359375 C 6.285156 2.703125 5.851562 2.976562 5.3125 3.1875 C 4.78125 3.394531 4.113281 3.5 3.3125 3.5 Z M 4.578125 -1.640625 C 5.148438 -1.640625 5.644531 -1.832031 6.0625 -2.21875 C 6.476562 -2.601562 6.800781 -3.085938 7.03125 -3.671875 C 7.257812 -4.253906 7.375 -4.847656 7.375 -5.453125 C 7.375 -6.273438 7.144531 -6.898438 6.6875 -7.328125 C 6.238281 -7.753906 5.707031 -7.96875 5.09375 -7.96875 C 4.457031 -7.96875 3.925781 -7.78125 3.5 -7.40625 C 3.082031 -7.039062 2.765625 -6.566406 2.546875 -5.984375 C 2.335938 -5.410156 2.234375 -4.804688 2.234375 -4.171875 C 2.234375 -3.378906 2.445312 -2.757812 2.875 -2.3125 C 3.300781 -1.863281 3.867188 -1.640625 4.578125 -1.640625 Z M 4.578125 -1.640625 "/></g></g></g><g fill="#004aad" fill-opacity="1"><g transform="translate(219.436472, 219.307793)"><g><path d="M 4.390625 0.21875 C 3.179688 0.21875 2.226562 -0.128906 1.53125 -0.828125 C 0.84375 -1.523438 0.5 -2.472656 0.5 -3.671875 C 0.5 -4.734375 0.707031 -5.6875 1.125 -6.53125 C 1.550781 -7.382812 2.15625 -8.054688 2.9375 -8.546875 C 3.71875 -9.046875 4.640625 -9.296875 5.703125 -9.296875 C 6.523438 -9.296875 7.207031 -9.128906 7.75 -8.796875 C 8.289062 -8.460938 8.695312 -8.007812 8.96875 -7.4375 C 9.25 -6.863281 9.390625 -6.226562 9.390625 -5.53125 C 9.390625 -5.09375 9.332031 -4.628906 9.21875 -4.140625 L 2.140625 -4.140625 C 2.128906 -4.054688 2.125 -3.972656 2.125 -3.890625 C 2.125 -3.804688 2.125 -3.71875 2.125 -3.625 C 2.125 -3 2.242188 -2.503906 2.484375 -2.140625 C 2.722656 -1.785156 3.03125 -1.53125 3.40625 -1.375 C 3.789062 -1.21875 4.179688 -1.140625 4.578125 -1.140625 C 5.085938 -1.140625 5.523438 -1.222656 5.890625 -1.390625 C 6.265625 -1.554688 6.582031 -1.773438 6.84375 -2.046875 L 8.28125 -1.609375 C 7.863281 -1.066406 7.332031 -0.625 6.6875 -0.28125 C 6.039062 0.0507812 5.273438 0.21875 4.390625 0.21875 Z M 2.359375 -5.40625 L 7.765625 -5.40625 C 7.773438 -5.46875 7.78125 -5.519531 7.78125 -5.5625 C 7.78125 -5.613281 7.78125 -5.664062 7.78125 -5.71875 C 7.78125 -6.082031 7.703125 -6.4375 7.546875 -6.78125 C 7.390625 -7.125 7.144531 -7.40625 6.8125 -7.625 C 6.476562 -7.851562 6.03125 -7.96875 5.46875 -7.96875 C 5.019531 -7.96875 4.578125 -7.867188 4.140625 -7.671875 C 3.710938 -7.472656 3.335938 -7.179688 3.015625 -6.796875 C 2.703125 -6.421875 2.484375 -5.957031 2.359375 -5.40625 Z M 2.359375 -5.40625 "/></g></g></g><g fill="#004aad" fill-opacity="1"><g transform="translate(229.424779, 219.307793)"><g><path d="M 0.140625 0 L 2.078125 -9.140625 L 3.265625 -9.140625 L 3.375 -7.875 C 3.675781 -8.269531 4.078125 -8.601562 4.578125 -8.875 C 5.078125 -9.15625 5.738281 -9.296875 6.5625 -9.296875 C 7.332031 -9.296875 7.9375 -9.082031 8.375 -8.65625 C 8.8125 -8.238281 9.03125 -7.597656 9.03125 -6.734375 C 9.03125 -6.316406 8.976562 -5.835938 8.875 -5.296875 L 7.71875 0 L 6.15625 0 L 7.25 -5.140625 C 7.351562 -5.679688 7.40625 -6.125 7.40625 -6.46875 C 7.40625 -7.007812 7.28125 -7.382812 7.03125 -7.59375 C 6.789062 -7.8125 6.40625 -7.921875 5.875 -7.921875 C 5.4375 -7.921875 5.007812 -7.820312 4.59375 -7.625 C 4.175781 -7.4375 3.800781 -7.109375 3.46875 -6.640625 C 3.144531 -6.171875 2.898438 -5.535156 2.734375 -4.734375 L 1.734375 0 Z M 0.140625 0 "/></g></g></g><g fill="#004aad" fill-opacity="1"><g transform="translate(239.560511, 219.307793)"><g><path d="M 4.09375 0.21875 C 2.945312 0.21875 2.054688 -0.117188 1.421875 -0.796875 C 0.796875 -1.472656 0.484375 -2.390625 0.484375 -3.546875 C 0.484375 -4.585938 0.6875 -5.539062 1.09375 -6.40625 C 1.507812 -7.269531 2.09375 -7.96875 2.84375 -8.5 C 3.601562 -9.03125 4.488281 -9.296875 5.5 -9.296875 C 6.332031 -9.296875 7.03125 -9.117188 7.59375 -8.765625 C 8.15625 -8.410156 8.59375 -7.90625 8.90625 -7.25 L 7.375 -6.71875 C 7.25 -7.082031 7.007812 -7.375 6.65625 -7.59375 C 6.300781 -7.8125 5.890625 -7.921875 5.421875 -7.921875 C 4.722656 -7.921875 4.132812 -7.71875 3.65625 -7.3125 C 3.175781 -6.914062 2.804688 -6.390625 2.546875 -5.734375 C 2.296875 -5.078125 2.171875 -4.375 2.171875 -3.625 C 2.171875 -2.925781 2.335938 -2.335938 2.671875 -1.859375 C 3.015625 -1.378906 3.601562 -1.140625 4.4375 -1.140625 C 4.945312 -1.140625 5.390625 -1.242188 5.765625 -1.453125 C 6.140625 -1.671875 6.460938 -1.96875 6.734375 -2.34375 L 8.03125 -1.828125 C 7.613281 -1.148438 7.054688 -0.640625 6.359375 -0.296875 C 5.671875 0.046875 4.914062 0.21875 4.09375 0.21875 Z M 4.09375 0.21875 "/></g></g></g><g fill="#004aad" fill-opacity="1"><g transform="translate(248.682666, 219.307793)"><g><path d="M 4.390625 0.21875 C 3.179688 0.21875 2.226562 -0.128906 1.53125 -0.828125 C 0.84375 -1.523438 0.5 -2.472656 0.5 -3.671875 C 0.5 -4.734375 0.707031 -5.6875 1.125 -6.53125 C 1.550781 -7.382812 2.15625 -8.054688 2.9375 -8.546875 C 3.71875 -9.046875 4.640625 -9.296875 5.703125 -9.296875 C 6.523438 -9.296875 7.207031 -9.128906 7.75 -8.796875 C 8.289062 -8.460938 8.695312 -8.007812 8.96875 -7.4375 C 9.25 -6.863281 9.390625 -6.226562 9.390625 -5.53125 C 9.390625 -5.09375 9.332031 -4.628906 9.21875 -4.140625 L 2.140625 -4.140625 C 2.128906 -4.054688 2.125 -3.972656 2.125 -3.890625 C 2.125 -3.804688 2.125 -3.71875 2.125 -3.625 C 2.125 -3 2.242188 -2.503906 2.484375 -2.140625 C 2.722656 -1.785156 3.03125 -1.53125 3.40625 -1.375 C 3.789062 -1.21875 4.179688 -1.140625 4.578125 -1.140625 C 5.085938 -1.140625 5.523438 -1.222656 5.890625 -1.390625 C 6.265625 -1.554688 6.582031 -1.773438 6.84375 -2.046875 L 8.28125 -1.609375 C 7.863281 -1.066406 7.332031 -0.625 6.6875 -0.28125 C 6.039062 0.0507812 5.273438 0.21875 4.390625 0.21875 Z M 2.359375 -5.40625 L 7.765625 -5.40625 C 7.773438 -5.46875 7.78125 -5.519531 7.78125 -5.5625 C 7.78125 -5.613281 7.78125 -5.664062 7.78125 -5.71875 C 7.78125 -6.082031 7.703125 -6.4375 7.546875 -6.78125 C 7.390625 -7.125 7.144531 -7.40625 6.8125 -7.625 C 6.476562 -7.851562 6.03125 -7.96875 5.46875 -7.96875 C 5.019531 -7.96875 4.578125 -7.867188 4.140625 -7.671875 C 3.710938 -7.472656 3.335938 -7.179688 3.015625 -6.796875 C 2.703125 -6.421875 2.484375 -5.957031 2.359375 -5.40625 Z M 2.359375 -5.40625 "/></g></g></g><g clip-path="url(#28b717dd36)"><g clip-path="url(#58d6a46d3f)"><path fill="#000000" d="M 89.617188 131.25 L 282.535156 131.25 L 282.535156 243.75 L 89.617188 243.75 Z M 89.617188 131.25 " fill-opacity="1" fill-rule="nonzero"/></g></g><path fill="#ff914d" d="M 259.625 344.074219 C 264.121094 342.738281 268.496094 341.199219 272.761719 339.488281 C 199.03125 354.078125 124.960938 310.382812 103.136719 236.894531 C 81.3125 163.402344 119.53125 86.363281 189.273438 58.347656 C 184.765625 59.238281 180.257812 60.339844 175.765625 61.671875 C 97.78125 84.828125 53.339844 166.820312 76.496094 244.804688 C 99.652344 322.785156 181.644531 367.230469 259.625 344.074219 " fill-opacity="1" fill-rule="nonzero"/><path fill="#004aad" d="M 77.125 306.6875 C 81.035156 309.753906 85.050781 312.59375 89.144531 315.226562 C 31.316406 260.449219 23.648438 169.628906 73.78125 105.6875 C 123.914062 41.753906 213.945312 27.53125 280.9375 70.628906 C 277.398438 67.28125 273.6875 64.058594 269.777344 60.992188 C 201.933594 7.792969 103.804688 19.667969 50.605469 87.515625 C -2.59375 155.363281 9.28125 253.488281 77.125 306.6875 " fill-opacity="1" fill-rule="nonzero"/><path fill="#004aad" d="M 222.296875 299.554688 C 182.0625 288.742188 148.964844 264.617188 126.460938 233.203125 C 144.203125 272.378906 178.691406 303.597656 223.464844 315.632812 C 281.953125 331.355469 341.664062 309.957031 377.597656 265.859375 C 335.8125 300.292969 278.5625 314.679688 222.296875 299.554688 " fill-opacity="1" fill-rule="nonzero"/></svg>