<svg xmlns="http://www.w3.org/2000/svg" xmlns:xlink="http://www.w3.org/1999/xlink" width="500" zoomAndPan="magnify" viewBox="0 0 375 149.999998" height="200" preserveAspectRatio="xMidYMid meet" version="1.0"><defs><g/></defs><path fill="#ff914d" d="M 96.929688 130.851562 C 98.519531 130.378906 100.070312 129.832031 101.578125 129.226562 C 75.46875 134.394531 49.238281 118.917969 41.507812 92.894531 C 33.78125 66.867188 47.316406 39.582031 72.011719 29.660156 C 70.417969 29.976562 68.820312 30.367188 67.230469 30.839844 C 39.613281 39.039062 23.871094 68.078125 32.074219 95.695312 C 40.273438 123.3125 69.3125 139.050781 96.929688 130.851562 " fill-opacity="1" fill-rule="nonzero"/><path fill="#004aad" d="M 32.296875 117.609375 C 33.679688 118.695312 35.101562 119.703125 36.554688 120.632812 C 16.074219 101.234375 13.355469 69.070312 31.113281 46.425781 C 48.867188 23.785156 80.75 18.75 104.476562 34.011719 C 103.222656 32.824219 101.910156 31.683594 100.523438 30.597656 C 76.496094 11.757812 41.746094 15.964844 22.902344 39.992188 C 4.0625 64.019531 8.269531 98.769531 32.296875 117.609375 " fill-opacity="1" fill-rule="nonzero"/><path fill="#004aad" d="M 83.707031 115.085938 C 69.460938 111.253906 57.738281 102.710938 49.769531 91.585938 C 56.050781 105.460938 68.265625 116.515625 84.121094 120.777344 C 104.835938 126.347656 125.980469 118.765625 138.707031 103.152344 C 123.910156 115.34375 103.632812 120.441406 83.707031 115.085938 " fill-opacity="1" fill-rule="nonzero"/><g fill="#000000" fill-opacity="1"><g transform="translate(168.49566, 93.301803)"><g><path d="M 31.53125 -10.78125 L 13.265625 -10.78125 L 7.875 0 L -3.734375 0 L 24.234375 -52.359375 L 33.984375 -52.359375 L 43.9375 0 L 33.1875 0 Z M 17.578125 -19.53125 L 30.203125 -19.53125 L 27.25 -39.015625 Z M 17.578125 -19.53125 "/></g></g></g><g fill="#000000" fill-opacity="1"><g transform="translate(213.460637, 93.301803)"><g><path d="M 11.96875 0 L 1.4375 0 L 10.5 -52.359375 L 21.03125 -52.359375 Z M 11.96875 0 "/></g></g></g><g fill="#ff914d" fill-opacity="1"><g transform="translate(228.650205, 91.871598)"><g><path d="M 21.796875 0.71875 C 18.316406 0.644531 15.25 -0.171875 12.59375 -1.734375 C 9.945312 -3.304688 7.847656 -5.570312 6.296875 -8.53125 C 4.753906 -11.5 3.863281 -14.898438 3.625 -18.734375 C 3.363281 -22.660156 3.785156 -26.851562 4.890625 -31.3125 C 5.992188 -35.769531 7.765625 -39.6875 10.203125 -43.0625 C 12.648438 -46.445312 15.519531 -48.976562 18.8125 -50.65625 C 22.113281 -52.34375 25.679688 -53.148438 29.515625 -53.078125 C 33.046875 -53.003906 36.128906 -52.171875 38.765625 -50.578125 C 41.398438 -48.984375 43.472656 -46.691406 44.984375 -43.703125 C 46.492188 -40.722656 47.359375 -37.335938 47.578125 -33.546875 C 47.816406 -29.328125 47.359375 -24.988281 46.203125 -20.53125 C 45.054688 -16.070312 43.269531 -12.210938 40.84375 -8.953125 C 38.425781 -5.691406 35.59375 -3.242188 32.34375 -1.609375 C 29.09375 0.015625 25.578125 0.789062 21.796875 0.71875 Z M 36.71875 -27.609375 L 37 -31.03125 C 37.238281 -35.300781 36.664062 -38.535156 35.28125 -40.734375 C 33.90625 -42.941406 31.816406 -44.09375 29.015625 -44.1875 C 24.628906 -44.332031 21.144531 -42.390625 18.5625 -38.359375 C 15.988281 -34.335938 14.535156 -28.707031 14.203125 -21.46875 C 13.960938 -17.226562 14.523438 -13.960938 15.890625 -11.671875 C 17.253906 -9.378906 19.375 -8.1875 22.25 -8.09375 C 26.019531 -7.925781 29.140625 -9.394531 31.609375 -12.5 C 34.078125 -15.601562 35.691406 -19.992188 36.453125 -25.671875 Z M 36.71875 -27.609375 "/></g></g></g><g fill="#ff914d" fill-opacity="1"><g transform="translate(274.874182, 91.871598)"><g><path d="M 17.15625 -7.625 C 19.019531 -7.570312 20.578125 -8.078125 21.828125 -9.140625 C 23.078125 -10.210938 23.890625 -11.632812 24.265625 -13.40625 L 33.796875 -13.453125 C 33.628906 -10.710938 32.769531 -8.25 31.21875 -6.0625 C 29.675781 -3.882812 27.613281 -2.1875 25.03125 -0.96875 C 22.457031 0.25 19.75 0.820312 16.90625 0.75 C 12.175781 0.675781 8.429688 -0.953125 5.671875 -4.140625 C 2.921875 -7.328125 1.59375 -11.566406 1.6875 -16.859375 L 1.796875 -18.84375 L 1.828125 -19.234375 C 2.472656 -25.566406 4.601562 -30.582031 8.21875 -34.28125 C 11.84375 -37.988281 16.316406 -39.769531 21.640625 -39.625 C 26.023438 -39.53125 29.503906 -38.097656 32.078125 -35.328125 C 34.660156 -32.554688 35.929688 -28.90625 35.890625 -24.375 L 26.421875 -24.375 C 26.421875 -26.457031 25.96875 -28.097656 25.0625 -29.296875 C 24.15625 -30.503906 22.789062 -31.15625 20.96875 -31.25 C 16.125 -31.394531 13.1875 -27.859375 12.15625 -20.640625 C 11.789062 -18.023438 11.660156 -15.816406 11.765625 -14.015625 C 12.003906 -9.828125 13.800781 -7.695312 17.15625 -7.625 Z M 17.15625 -7.625 "/></g></g></g><g fill="#ff914d" fill-opacity="1"><g transform="translate(309.018352, 91.871598)"><g><path d="M 20.671875 -48.46875 L 18.984375 -38.90625 L 25.453125 -38.90625 L 24.125 -31.28125 L 17.65625 -31.28125 L 14.34375 -11.796875 C 14.195312 -10.566406 14.289062 -9.628906 14.625 -8.984375 C 14.96875 -8.335938 15.785156 -7.992188 17.078125 -7.953125 C 17.460938 -7.921875 18.492188 -7.976562 20.171875 -8.125 L 19.453125 -0.1875 C 17.648438 0.414062 15.707031 0.691406 13.625 0.640625 C 10.289062 0.597656 7.804688 -0.4375 6.171875 -2.46875 C 4.546875 -4.507812 3.878906 -7.269531 4.171875 -10.75 L 7.515625 -31.28125 L 2.015625 -31.28125 L 3.34375 -38.90625 L 8.84375 -38.90625 L 10.5 -48.46875 Z M 20.671875 -48.46875 "/></g></g></g><g fill="#004aad" fill-opacity="1"><g transform="translate(148.160824, 119.287709)"><g><path d="M 5.640625 0.3125 C 4.066406 0.3125 2.84375 -0.148438 1.96875 -1.078125 C 1.09375 -2.015625 0.65625 -3.28125 0.65625 -4.875 C 0.65625 -6.320312 0.9375 -7.640625 1.5 -8.828125 C 2.070312 -10.023438 2.878906 -10.988281 3.921875 -11.71875 C 4.960938 -12.445312 6.179688 -12.8125 7.578125 -12.8125 C 8.722656 -12.8125 9.6875 -12.566406 10.46875 -12.078125 C 11.25 -11.597656 11.851562 -10.898438 12.28125 -9.984375 L 10.171875 -9.25 C 10.003906 -9.757812 9.671875 -10.164062 9.171875 -10.46875 C 8.679688 -10.78125 8.113281 -10.9375 7.46875 -10.9375 C 6.507812 -10.9375 5.695312 -10.65625 5.03125 -10.09375 C 4.375 -9.53125 3.867188 -8.800781 3.515625 -7.90625 C 3.171875 -7.007812 3 -6.046875 3 -5.015625 C 3 -4.046875 3.226562 -3.226562 3.6875 -2.5625 C 4.15625 -1.90625 4.96875 -1.578125 6.125 -1.578125 C 6.820312 -1.578125 7.425781 -1.722656 7.9375 -2.015625 C 8.457031 -2.316406 8.90625 -2.722656 9.28125 -3.234375 L 11.078125 -2.515625 C 10.503906 -1.585938 9.738281 -0.882812 8.78125 -0.40625 C 7.820312 0.0703125 6.773438 0.3125 5.640625 0.3125 Z M 5.640625 0.3125 "/></g></g></g><g fill="#004aad" fill-opacity="1"><g transform="translate(160.745993, 119.287709)"><g><path d="M 0.203125 0 L 2.875 -12.609375 L 4.46875 -12.609375 L 4.671875 -10.25 C 5.203125 -10.988281 5.816406 -11.597656 6.515625 -12.078125 C 7.222656 -12.566406 8.203125 -12.8125 9.453125 -12.8125 L 9.734375 -12.8125 L 9.25 -10.546875 C 8.78125 -10.566406 8.34375 -10.539062 7.9375 -10.46875 C 6.644531 -10.269531 5.65625 -9.695312 4.96875 -8.75 C 4.28125 -7.8125 3.785156 -6.632812 3.484375 -5.21875 L 2.390625 0 Z M 0.203125 0 "/></g></g></g><g fill="#004aad" fill-opacity="1"><g transform="translate(169.720872, 119.287709)"><g><path d="M 6.046875 0.3125 C 4.390625 0.3125 3.082031 -0.171875 2.125 -1.140625 C 1.164062 -2.109375 0.6875 -3.414062 0.6875 -5.0625 C 0.6875 -6.53125 0.976562 -7.847656 1.5625 -9.015625 C 2.144531 -10.191406 2.972656 -11.117188 4.046875 -11.796875 C 5.128906 -12.472656 6.398438 -12.8125 7.859375 -12.8125 C 8.992188 -12.8125 9.929688 -12.582031 10.671875 -12.125 C 11.421875 -11.664062 11.984375 -11.039062 12.359375 -10.25 C 12.742188 -9.46875 12.9375 -8.59375 12.9375 -7.625 C 12.9375 -7.019531 12.859375 -6.382812 12.703125 -5.71875 L 2.953125 -5.71875 C 2.929688 -5.601562 2.921875 -5.484375 2.921875 -5.359375 C 2.921875 -5.242188 2.921875 -5.128906 2.921875 -5.015625 C 2.921875 -4.148438 3.085938 -3.46875 3.421875 -2.96875 C 3.753906 -2.46875 4.179688 -2.109375 4.703125 -1.890625 C 5.222656 -1.679688 5.753906 -1.578125 6.296875 -1.578125 C 7.015625 -1.578125 7.625 -1.691406 8.125 -1.921875 C 8.632812 -2.148438 9.070312 -2.453125 9.4375 -2.828125 L 11.421875 -2.21875 C 10.835938 -1.46875 10.097656 -0.859375 9.203125 -0.390625 C 8.316406 0.078125 7.265625 0.3125 6.046875 0.3125 Z M 3.25 -7.453125 L 10.703125 -7.453125 C 10.722656 -7.535156 10.734375 -7.609375 10.734375 -7.671875 C 10.734375 -7.742188 10.734375 -7.8125 10.734375 -7.875 C 10.734375 -8.382812 10.625 -8.875 10.40625 -9.34375 C 10.195312 -9.820312 9.859375 -10.210938 9.390625 -10.515625 C 8.921875 -10.828125 8.304688 -10.984375 7.546875 -10.984375 C 6.921875 -10.984375 6.3125 -10.847656 5.71875 -10.578125 C 5.125 -10.304688 4.609375 -9.90625 4.171875 -9.375 C 3.734375 -8.851562 3.425781 -8.210938 3.25 -7.453125 Z M 3.25 -7.453125 "/></g></g></g><g fill="#004aad" fill-opacity="1"><g transform="translate(183.501007, 119.287709)"><g><path d="M 3.921875 0.3125 C 2.828125 0.3125 1.921875 0.015625 1.203125 -0.578125 C 0.484375 -1.171875 0.125 -1.96875 0.125 -2.96875 C 0.125 -3.820312 0.347656 -4.523438 0.796875 -5.078125 C 1.242188 -5.640625 1.828125 -6.085938 2.546875 -6.421875 C 3.273438 -6.765625 4.054688 -7.023438 4.890625 -7.203125 C 5.734375 -7.378906 6.550781 -7.507812 7.34375 -7.59375 C 8.144531 -7.6875 8.832031 -7.765625 9.40625 -7.828125 C 9.457031 -8.066406 9.5 -8.285156 9.53125 -8.484375 C 9.5625 -8.691406 9.578125 -8.890625 9.578125 -9.078125 C 9.578125 -10.410156 8.800781 -11.078125 7.25 -11.078125 C 6.46875 -11.078125 5.804688 -10.90625 5.265625 -10.5625 C 4.722656 -10.21875 4.304688 -9.738281 4.015625 -9.125 L 2.109375 -9.71875 C 2.546875 -10.664062 3.1875 -11.414062 4.03125 -11.96875 C 4.882812 -12.53125 5.921875 -12.8125 7.140625 -12.8125 C 8.617188 -12.8125 9.753906 -12.515625 10.546875 -11.921875 C 11.347656 -11.328125 11.75 -10.410156 11.75 -9.171875 C 11.75 -8.890625 11.726562 -8.601562 11.6875 -8.3125 C 11.644531 -8.019531 11.566406 -7.609375 11.453125 -7.078125 C 11.335938 -6.554688 11.171875 -5.789062 10.953125 -4.78125 C 10.734375 -3.726562 10.582031 -2.816406 10.5 -2.046875 C 10.425781 -1.273438 10.382812 -0.59375 10.375 0 L 8.359375 0 L 8.265625 -1.609375 C 7.703125 -0.972656 7.085938 -0.492188 6.421875 -0.171875 C 5.753906 0.148438 4.921875 0.3125 3.921875 0.3125 Z M 4.59375 -1.453125 C 5.75 -1.453125 6.738281 -1.835938 7.5625 -2.609375 C 8.382812 -3.378906 8.90625 -4.40625 9.125 -5.6875 L 9.203125 -6.125 C 7.796875 -5.988281 6.59375 -5.832031 5.59375 -5.65625 C 4.59375 -5.476562 3.828125 -5.203125 3.296875 -4.828125 C 2.773438 -4.453125 2.515625 -3.898438 2.515625 -3.171875 C 2.515625 -2.597656 2.71875 -2.164062 3.125 -1.875 C 3.53125 -1.59375 4.019531 -1.453125 4.59375 -1.453125 Z M 4.59375 -1.453125 "/></g></g></g><g fill="#004aad" fill-opacity="1"><g transform="translate(196.747214, 119.287709)"><g><path d="M 4.0625 0 C 3.082031 0 2.410156 -0.140625 2.046875 -0.421875 C 1.679688 -0.703125 1.5 -1.128906 1.5 -1.703125 C 1.5 -2.078125 1.582031 -2.65625 1.75 -3.4375 L 3.359375 -10.875 L 1.25 -10.875 L 1.609375 -12.609375 L 3.71875 -12.609375 L 4.390625 -15.765625 L 6.578125 -15.765625 L 5.890625 -12.609375 L 8.3125 -12.609375 L 7.953125 -10.875 L 5.546875 -10.875 L 4.0625 -4.046875 C 4 -3.734375 3.945312 -3.453125 3.90625 -3.203125 C 3.863281 -2.960938 3.84375 -2.773438 3.84375 -2.640625 C 3.84375 -2.367188 3.914062 -2.175781 4.0625 -2.0625 C 4.21875 -1.957031 4.507812 -1.90625 4.9375 -1.90625 L 6.046875 -1.90625 L 5.640625 0 Z M 4.0625 0 "/></g></g></g><g fill="#004aad" fill-opacity="1"><g transform="translate(204.984789, 119.287709)"><g><path d="M 6.046875 0.3125 C 4.390625 0.3125 3.082031 -0.171875 2.125 -1.140625 C 1.164062 -2.109375 0.6875 -3.414062 0.6875 -5.0625 C 0.6875 -6.53125 0.976562 -7.847656 1.5625 -9.015625 C 2.144531 -10.191406 2.972656 -11.117188 4.046875 -11.796875 C 5.128906 -12.472656 6.398438 -12.8125 7.859375 -12.8125 C 8.992188 -12.8125 9.929688 -12.582031 10.671875 -12.125 C 11.421875 -11.664062 11.984375 -11.039062 12.359375 -10.25 C 12.742188 -9.46875 12.9375 -8.59375 12.9375 -7.625 C 12.9375 -7.019531 12.859375 -6.382812 12.703125 -5.71875 L 2.953125 -5.71875 C 2.929688 -5.601562 2.921875 -5.484375 2.921875 -5.359375 C 2.921875 -5.242188 2.921875 -5.128906 2.921875 -5.015625 C 2.921875 -4.148438 3.085938 -3.46875 3.421875 -2.96875 C 3.753906 -2.46875 4.179688 -2.109375 4.703125 -1.890625 C 5.222656 -1.679688 5.753906 -1.578125 6.296875 -1.578125 C 7.015625 -1.578125 7.625 -1.691406 8.125 -1.921875 C 8.632812 -2.148438 9.070312 -2.453125 9.4375 -2.828125 L 11.421875 -2.21875 C 10.835938 -1.46875 10.097656 -0.859375 9.203125 -0.390625 C 8.316406 0.078125 7.265625 0.3125 6.046875 0.3125 Z M 3.25 -7.453125 L 10.703125 -7.453125 C 10.722656 -7.535156 10.734375 -7.609375 10.734375 -7.671875 C 10.734375 -7.742188 10.734375 -7.8125 10.734375 -7.875 C 10.734375 -8.382812 10.625 -8.875 10.40625 -9.34375 C 10.195312 -9.820312 9.859375 -10.210938 9.390625 -10.515625 C 8.921875 -10.828125 8.304688 -10.984375 7.546875 -10.984375 C 6.921875 -10.984375 6.3125 -10.847656 5.71875 -10.578125 C 5.125 -10.304688 4.609375 -9.90625 4.171875 -9.375 C 3.734375 -8.851562 3.425781 -8.210938 3.25 -7.453125 Z M 3.25 -7.453125 "/></g></g></g><g fill="#004aad" fill-opacity="1"><g transform="translate(218.764924, 119.287709)"><g/></g></g><g fill="#004aad" fill-opacity="1"><g transform="translate(225.883815, 119.287709)"><g><path d="M 5.828125 -15.03125 C 5.398438 -15.03125 5.03125 -15.1875 4.71875 -15.5 C 4.40625 -15.8125 4.25 -16.175781 4.25 -16.59375 C 4.25 -17.039062 4.40625 -17.421875 4.71875 -17.734375 C 5.03125 -18.046875 5.398438 -18.203125 5.828125 -18.203125 C 6.265625 -18.203125 6.640625 -18.046875 6.953125 -17.734375 C 7.265625 -17.421875 7.421875 -17.039062 7.421875 -16.59375 C 7.421875 -16.175781 7.265625 -15.8125 6.953125 -15.5 C 6.640625 -15.1875 6.265625 -15.03125 5.828125 -15.03125 Z M 1.171875 0 L 3.484375 -10.875 L 1.453125 -10.875 L 1.8125 -12.609375 L 6.03125 -12.609375 L 3.359375 0 Z M 1.171875 0 "/></g></g></g><g fill="#004aad" fill-opacity="1"><g transform="translate(232.748452, 119.287709)"><g><path d="M 0.203125 0 L 2.875 -12.609375 L 4.5 -12.609375 L 4.65625 -10.859375 C 5.070312 -11.398438 5.625 -11.859375 6.3125 -12.234375 C 7 -12.617188 7.910156 -12.8125 9.046875 -12.8125 C 10.117188 -12.8125 10.953125 -12.519531 11.546875 -11.9375 C 12.148438 -11.363281 12.453125 -10.476562 12.453125 -9.28125 C 12.453125 -8.707031 12.378906 -8.046875 12.234375 -7.296875 L 10.65625 0 L 8.484375 0 L 9.984375 -7.09375 C 10.140625 -7.84375 10.21875 -8.453125 10.21875 -8.921875 C 10.21875 -9.671875 10.046875 -10.191406 9.703125 -10.484375 C 9.367188 -10.785156 8.835938 -10.9375 8.109375 -10.9375 C 7.492188 -10.9375 6.898438 -10.800781 6.328125 -10.53125 C 5.753906 -10.257812 5.242188 -9.800781 4.796875 -9.15625 C 4.347656 -8.507812 4.003906 -7.632812 3.765625 -6.53125 L 2.390625 0 Z M 0.203125 0 "/></g></g></g><g fill="#004aad" fill-opacity="1"><g transform="translate(246.73198, 119.287709)"><g><path d="M 4.0625 0 C 3.082031 0 2.410156 -0.140625 2.046875 -0.421875 C 1.679688 -0.703125 1.5 -1.128906 1.5 -1.703125 C 1.5 -2.078125 1.582031 -2.65625 1.75 -3.4375 L 3.359375 -10.875 L 1.25 -10.875 L 1.609375 -12.609375 L 3.71875 -12.609375 L 4.390625 -15.765625 L 6.578125 -15.765625 L 5.890625 -12.609375 L 8.3125 -12.609375 L 7.953125 -10.875 L 5.546875 -10.875 L 4.0625 -4.046875 C 4 -3.734375 3.945312 -3.453125 3.90625 -3.203125 C 3.863281 -2.960938 3.84375 -2.773438 3.84375 -2.640625 C 3.84375 -2.367188 3.914062 -2.175781 4.0625 -2.0625 C 4.21875 -1.957031 4.507812 -1.90625 4.9375 -1.90625 L 6.046875 -1.90625 L 5.640625 0 Z M 4.0625 0 "/></g></g></g><g fill="#004aad" fill-opacity="1"><g transform="translate(254.969555, 119.287709)"><g><path d="M 6.046875 0.3125 C 4.390625 0.3125 3.082031 -0.171875 2.125 -1.140625 C 1.164062 -2.109375 0.6875 -3.414062 0.6875 -5.0625 C 0.6875 -6.53125 0.976562 -7.847656 1.5625 -9.015625 C 2.144531 -10.191406 2.972656 -11.117188 4.046875 -11.796875 C 5.128906 -12.472656 6.398438 -12.8125 7.859375 -12.8125 C 8.992188 -12.8125 9.929688 -12.582031 10.671875 -12.125 C 11.421875 -11.664062 11.984375 -11.039062 12.359375 -10.25 C 12.742188 -9.46875 12.9375 -8.59375 12.9375 -7.625 C 12.9375 -7.019531 12.859375 -6.382812 12.703125 -5.71875 L 2.953125 -5.71875 C 2.929688 -5.601562 2.921875 -5.484375 2.921875 -5.359375 C 2.921875 -5.242188 2.921875 -5.128906 2.921875 -5.015625 C 2.921875 -4.148438 3.085938 -3.46875 3.421875 -2.96875 C 3.753906 -2.46875 4.179688 -2.109375 4.703125 -1.890625 C 5.222656 -1.679688 5.753906 -1.578125 6.296875 -1.578125 C 7.015625 -1.578125 7.625 -1.691406 8.125 -1.921875 C 8.632812 -2.148438 9.070312 -2.453125 9.4375 -2.828125 L 11.421875 -2.21875 C 10.835938 -1.46875 10.097656 -0.859375 9.203125 -0.390625 C 8.316406 0.078125 7.265625 0.3125 6.046875 0.3125 Z M 3.25 -7.453125 L 10.703125 -7.453125 C 10.722656 -7.535156 10.734375 -7.609375 10.734375 -7.671875 C 10.734375 -7.742188 10.734375 -7.8125 10.734375 -7.875 C 10.734375 -8.382812 10.625 -8.875 10.40625 -9.34375 C 10.195312 -9.820312 9.859375 -10.210938 9.390625 -10.515625 C 8.921875 -10.828125 8.304688 -10.984375 7.546875 -10.984375 C 6.921875 -10.984375 6.3125 -10.847656 5.71875 -10.578125 C 5.125 -10.304688 4.609375 -9.90625 4.171875 -9.375 C 3.734375 -8.851562 3.425781 -8.210938 3.25 -7.453125 Z M 3.25 -7.453125 "/></g></g></g><g fill="#004aad" fill-opacity="1"><g transform="translate(268.74969, 119.287709)"><g><path d="M 3.203125 0 C 2.222656 0 1.554688 -0.140625 1.203125 -0.421875 C 0.859375 -0.703125 0.6875 -1.128906 0.6875 -1.703125 C 0.6875 -2.160156 0.742188 -2.648438 0.859375 -3.171875 L 3.78125 -16.984375 L 5.96875 -16.984375 L 3.125 -3.5625 C 3.09375 -3.375 3.0625 -3.203125 3.03125 -3.046875 C 3.007812 -2.898438 3 -2.765625 3 -2.640625 C 3 -2.390625 3.070312 -2.203125 3.21875 -2.078125 C 3.375 -1.960938 3.664062 -1.90625 4.09375 -1.90625 L 5.03125 -1.90625 L 4.625 0 Z M 3.203125 0 "/></g></g></g><g fill="#004aad" fill-opacity="1"><g transform="translate(275.334652, 119.287709)"><g><path d="M 3.203125 0 C 2.222656 0 1.554688 -0.140625 1.203125 -0.421875 C 0.859375 -0.703125 0.6875 -1.128906 0.6875 -1.703125 C 0.6875 -2.160156 0.742188 -2.648438 0.859375 -3.171875 L 3.78125 -16.984375 L 5.96875 -16.984375 L 3.125 -3.5625 C 3.09375 -3.375 3.0625 -3.203125 3.03125 -3.046875 C 3.007812 -2.898438 3 -2.765625 3 -2.640625 C 3 -2.390625 3.070312 -2.203125 3.21875 -2.078125 C 3.375 -1.960938 3.664062 -1.90625 4.09375 -1.90625 L 5.03125 -1.90625 L 4.625 0 Z M 3.203125 0 "/></g></g></g><g fill="#004aad" fill-opacity="1"><g transform="translate(281.919614, 119.287709)"><g><path d="M 5.828125 -15.03125 C 5.398438 -15.03125 5.03125 -15.1875 4.71875 -15.5 C 4.40625 -15.8125 4.25 -16.175781 4.25 -16.59375 C 4.25 -17.039062 4.40625 -17.421875 4.71875 -17.734375 C 5.03125 -18.046875 5.398438 -18.203125 5.828125 -18.203125 C 6.265625 -18.203125 6.640625 -18.046875 6.953125 -17.734375 C 7.265625 -17.421875 7.421875 -17.039062 7.421875 -16.59375 C 7.421875 -16.175781 7.265625 -15.8125 6.953125 -15.5 C 6.640625 -15.1875 6.265625 -15.03125 5.828125 -15.03125 Z M 1.171875 0 L 3.484375 -10.875 L 1.453125 -10.875 L 1.8125 -12.609375 L 6.03125 -12.609375 L 3.359375 0 Z M 1.171875 0 "/></g></g></g><g fill="#004aad" fill-opacity="1"><g transform="translate(288.784252, 119.287709)"><g><path d="M 4.578125 4.828125 C 3.503906 4.828125 2.53125 4.570312 1.65625 4.0625 C 0.789062 3.5625 0.203125 2.867188 -0.109375 1.984375 L 2.1875 1.34375 C 2.269531 1.75 2.519531 2.117188 2.9375 2.453125 C 3.363281 2.796875 3.960938 2.96875 4.734375 2.96875 C 5.628906 2.96875 6.335938 2.8125 6.859375 2.5 C 7.390625 2.1875 7.789062 1.757812 8.0625 1.21875 C 8.332031 0.675781 8.539062 0.078125 8.6875 -0.578125 L 9.03125 -2.03125 C 8.601562 -1.488281 8.082031 -1.082031 7.46875 -0.8125 C 6.863281 -0.539062 6.226562 -0.40625 5.5625 -0.40625 C 4.78125 -0.40625 4.023438 -0.59375 3.296875 -0.96875 C 2.578125 -1.351562 1.984375 -1.9375 1.515625 -2.71875 C 1.046875 -3.5 0.8125 -4.472656 0.8125 -5.640625 C 0.8125 -6.941406 1.050781 -8.140625 1.53125 -9.234375 C 2.019531 -10.328125 2.707031 -11.203125 3.59375 -11.859375 C 4.488281 -12.523438 5.546875 -12.859375 6.765625 -12.859375 C 7.660156 -12.859375 8.476562 -12.660156 9.21875 -12.265625 C 9.96875 -11.867188 10.503906 -11.320312 10.828125 -10.625 L 11.84375 -12.609375 L 13.421875 -12.609375 C 13.015625 -10.710938 12.613281 -8.8125 12.21875 -6.90625 C 11.820312 -5.007812 11.414062 -3.101562 11 -1.1875 C 10.914062 -0.820312 10.816406 -0.378906 10.703125 0.140625 C 10.585938 0.671875 10.40625 1.207031 10.15625 1.75 C 9.90625 2.289062 9.554688 2.796875 9.109375 3.265625 C 8.660156 3.734375 8.066406 4.109375 7.328125 4.390625 C 6.597656 4.679688 5.679688 4.828125 4.578125 4.828125 Z M 6.296875 -2.265625 C 7.097656 -2.265625 7.785156 -2.53125 8.359375 -3.0625 C 8.941406 -3.59375 9.390625 -4.257812 9.703125 -5.0625 C 10.015625 -5.875 10.171875 -6.695312 10.171875 -7.53125 C 10.171875 -8.664062 9.851562 -9.523438 9.21875 -10.109375 C 8.59375 -10.691406 7.859375 -10.984375 7.015625 -10.984375 C 6.148438 -10.984375 5.425781 -10.726562 4.84375 -10.21875 C 4.257812 -9.707031 3.816406 -9.050781 3.515625 -8.25 C 3.222656 -7.457031 3.078125 -6.625 3.078125 -5.75 C 3.078125 -4.664062 3.375 -3.8125 3.96875 -3.1875 C 4.5625 -2.570312 5.335938 -2.265625 6.296875 -2.265625 Z M 6.296875 -2.265625 "/></g></g></g><g fill="#004aad" fill-opacity="1"><g transform="translate(302.894906, 119.287709)"><g><path d="M 6.046875 0.3125 C 4.390625 0.3125 3.082031 -0.171875 2.125 -1.140625 C 1.164062 -2.109375 0.6875 -3.414062 0.6875 -5.0625 C 0.6875 -6.53125 0.976562 -7.847656 1.5625 -9.015625 C 2.144531 -10.191406 2.972656 -11.117188 4.046875 -11.796875 C 5.128906 -12.472656 6.398438 -12.8125 7.859375 -12.8125 C 8.992188 -12.8125 9.929688 -12.582031 10.671875 -12.125 C 11.421875 -11.664062 11.984375 -11.039062 12.359375 -10.25 C 12.742188 -9.46875 12.9375 -8.59375 12.9375 -7.625 C 12.9375 -7.019531 12.859375 -6.382812 12.703125 -5.71875 L 2.953125 -5.71875 C 2.929688 -5.601562 2.921875 -5.484375 2.921875 -5.359375 C 2.921875 -5.242188 2.921875 -5.128906 2.921875 -5.015625 C 2.921875 -4.148438 3.085938 -3.46875 3.421875 -2.96875 C 3.753906 -2.46875 4.179688 -2.109375 4.703125 -1.890625 C 5.222656 -1.679688 5.753906 -1.578125 6.296875 -1.578125 C 7.015625 -1.578125 7.625 -1.691406 8.125 -1.921875 C 8.632812 -2.148438 9.070312 -2.453125 9.4375 -2.828125 L 11.421875 -2.21875 C 10.835938 -1.46875 10.097656 -0.859375 9.203125 -0.390625 C 8.316406 0.078125 7.265625 0.3125 6.046875 0.3125 Z M 3.25 -7.453125 L 10.703125 -7.453125 C 10.722656 -7.535156 10.734375 -7.609375 10.734375 -7.671875 C 10.734375 -7.742188 10.734375 -7.8125 10.734375 -7.875 C 10.734375 -8.382812 10.625 -8.875 10.40625 -9.34375 C 10.195312 -9.820312 9.859375 -10.210938 9.390625 -10.515625 C 8.921875 -10.828125 8.304688 -10.984375 7.546875 -10.984375 C 6.921875 -10.984375 6.3125 -10.847656 5.71875 -10.578125 C 5.125 -10.304688 4.609375 -9.90625 4.171875 -9.375 C 3.734375 -8.851562 3.425781 -8.210938 3.25 -7.453125 Z M 3.25 -7.453125 "/></g></g></g><g fill="#004aad" fill-opacity="1"><g transform="translate(316.675041, 119.287709)"><g><path d="M 0.203125 0 L 2.875 -12.609375 L 4.5 -12.609375 L 4.65625 -10.859375 C 5.070312 -11.398438 5.625 -11.859375 6.3125 -12.234375 C 7 -12.617188 7.910156 -12.8125 9.046875 -12.8125 C 10.117188 -12.8125 10.953125 -12.519531 11.546875 -11.9375 C 12.148438 -11.363281 12.453125 -10.476562 12.453125 -9.28125 C 12.453125 -8.707031 12.378906 -8.046875 12.234375 -7.296875 L 10.65625 0 L 8.484375 0 L 9.984375 -7.09375 C 10.140625 -7.84375 10.21875 -8.453125 10.21875 -8.921875 C 10.21875 -9.671875 10.046875 -10.191406 9.703125 -10.484375 C 9.367188 -10.785156 8.835938 -10.9375 8.109375 -10.9375 C 7.492188 -10.9375 6.898438 -10.800781 6.328125 -10.53125 C 5.753906 -10.257812 5.242188 -9.800781 4.796875 -9.15625 C 4.347656 -8.507812 4.003906 -7.632812 3.765625 -6.53125 L 2.390625 0 Z M 0.203125 0 "/></g></g></g><g fill="#004aad" fill-opacity="1"><g transform="translate(330.658569, 119.287709)"><g><path d="M 5.640625 0.3125 C 4.066406 0.3125 2.84375 -0.148438 1.96875 -1.078125 C 1.09375 -2.015625 0.65625 -3.28125 0.65625 -4.875 C 0.65625 -6.320312 0.9375 -7.640625 1.5 -8.828125 C 2.070312 -10.023438 2.878906 -10.988281 3.921875 -11.71875 C 4.960938 -12.445312 6.179688 -12.8125 7.578125 -12.8125 C 8.722656 -12.8125 9.6875 -12.566406 10.46875 -12.078125 C 11.25 -11.597656 11.851562 -10.898438 12.28125 -9.984375 L 10.171875 -9.25 C 10.003906 -9.757812 9.671875 -10.164062 9.171875 -10.46875 C 8.679688 -10.78125 8.113281 -10.9375 7.46875 -10.9375 C 6.507812 -10.9375 5.695312 -10.65625 5.03125 -10.09375 C 4.375 -9.53125 3.867188 -8.800781 3.515625 -7.90625 C 3.171875 -7.007812 3 -6.046875 3 -5.015625 C 3 -4.046875 3.226562 -3.226562 3.6875 -2.5625 C 4.15625 -1.90625 4.96875 -1.578125 6.125 -1.578125 C 6.820312 -1.578125 7.425781 -1.722656 7.9375 -2.015625 C 8.457031 -2.316406 8.90625 -2.722656 9.28125 -3.234375 L 11.078125 -2.515625 C 10.503906 -1.585938 9.738281 -0.882812 8.78125 -0.40625 C 7.820312 0.0703125 6.773438 0.3125 5.640625 0.3125 Z M 5.640625 0.3125 "/></g></g></g><g fill="#004aad" fill-opacity="1"><g transform="translate(343.243738, 119.287709)"><g><path d="M 6.046875 0.3125 C 4.390625 0.3125 3.082031 -0.171875 2.125 -1.140625 C 1.164062 -2.109375 0.6875 -3.414062 0.6875 -5.0625 C 0.6875 -6.53125 0.976562 -7.847656 1.5625 -9.015625 C 2.144531 -10.191406 2.972656 -11.117188 4.046875 -11.796875 C 5.128906 -12.472656 6.398438 -12.8125 7.859375 -12.8125 C 8.992188 -12.8125 9.929688 -12.582031 10.671875 -12.125 C 11.421875 -11.664062 11.984375 -11.039062 12.359375 -10.25 C 12.742188 -9.46875 12.9375 -8.59375 12.9375 -7.625 C 12.9375 -7.019531 12.859375 -6.382812 12.703125 -5.71875 L 2.953125 -5.71875 C 2.929688 -5.601562 2.921875 -5.484375 2.921875 -5.359375 C 2.921875 -5.242188 2.921875 -5.128906 2.921875 -5.015625 C 2.921875 -4.148438 3.085938 -3.46875 3.421875 -2.96875 C 3.753906 -2.46875 4.179688 -2.109375 4.703125 -1.890625 C 5.222656 -1.679688 5.753906 -1.578125 6.296875 -1.578125 C 7.015625 -1.578125 7.625 -1.691406 8.125 -1.921875 C 8.632812 -2.148438 9.070312 -2.453125 9.4375 -2.828125 L 11.421875 -2.21875 C 10.835938 -1.46875 10.097656 -0.859375 9.203125 -0.390625 C 8.316406 0.078125 7.265625 0.3125 6.046875 0.3125 Z M 3.25 -7.453125 L 10.703125 -7.453125 C 10.722656 -7.535156 10.734375 -7.609375 10.734375 -7.671875 C 10.734375 -7.742188 10.734375 -7.8125 10.734375 -7.875 C 10.734375 -8.382812 10.625 -8.875 10.40625 -9.34375 C 10.195312 -9.820312 9.859375 -10.210938 9.390625 -10.515625 C 8.921875 -10.828125 8.304688 -10.984375 7.546875 -10.984375 C 6.921875 -10.984375 6.3125 -10.847656 5.71875 -10.578125 C 5.125 -10.304688 4.609375 -9.90625 4.171875 -9.375 C 3.734375 -8.851562 3.425781 -8.210938 3.25 -7.453125 Z M 3.25 -7.453125 "/></g></g></g></svg>