<svg xmlns="http://www.w3.org/2000/svg" xmlns:xlink="http://www.w3.org/1999/xlink" width="500" zoomAndPan="magnify" viewBox="0 0 375 374.999991" height="500" preserveAspectRatio="xMidYMid meet" version="1.0"><defs><clipPath id="f765c4d7d6"><path d="M 1.828125 1.828125 L 373.078125 1.828125 L 373.078125 373.078125 L 1.828125 373.078125 Z M 1.828125 1.828125 " clip-rule="nonzero"/></clipPath><clipPath id="30f2345a88"><path d="M 67.59375 84.035156 L 307.640625 84.035156 L 307.640625 373.078125 L 67.59375 373.078125 Z M 67.59375 84.035156 " clip-rule="nonzero"/></clipPath></defs><g clip-path="url(#f765c4d7d6)"><path fill="#898989" d="M 1.828125 187.453125 C 1.828125 84.9375 84.9375 1.828125 187.453125 1.828125 C 289.972656 1.828125 373.082031 84.9375 373.082031 187.453125 C 373.082031 289.972656 289.972656 373.082031 187.453125 373.082031 C 84.9375 373.082031 1.828125 289.972656 1.828125 187.453125 " fill-opacity="1" fill-rule="nonzero"/></g><g clip-path="url(#30f2345a88)"><path fill="#494949" d="M 187.453125 373.082031 C 233.011719 373.082031 274.738281 356.664062 307.042969 329.429688 C 305.09375 325.832031 303.742188 323.433594 303.578125 322.585938 C 303.011719 319.585938 300.09375 319.585938 300.09375 319.585938 C 266.355469 307.910156 248.054688 311.488281 245.324219 303.152344 C 242.28125 293.851562 236.257812 296.332031 236.257812 296.332031 C 236.257812 296.332031 229.230469 275.976562 229.230469 268.765625 C 229.230469 261.558594 240.152344 261.042969 245.339844 232.5 C 250.535156 203.949219 255.722656 227.304688 259.613281 196.816406 C 263.507812 166.320312 255.398438 177.675781 253.128906 177.675781 C 250.859375 177.675781 257.535156 153.589844 253.640625 135.421875 L 256.75 141.605469 L 254.964844 130.574219 L 259.261719 137.414062 C 259.261719 137.414062 259.503906 103.71875 217.984375 89.539062 C 184.109375 79.570312 166.5 87.5 157.722656 95.730469 C 161.636719 90.222656 166.179688 86.550781 166.179688 86.550781 C 159.285156 91.816406 155.375 96.480469 153.152344 100.070312 C 155.921875 91.347656 162.402344 84.292969 162.402344 84.292969 C 152.039062 94.988281 150.101562 102.644531 149.785156 105.8125 C 149.679688 105.753906 149.566406 105.695312 149.4375 105.632812 C 147.175781 100.363281 147.785156 93.765625 147.785156 93.765625 C 147.160156 98.960938 147.460938 102.59375 148.042969 105.109375 C 145.472656 104.375 140.734375 104.070312 132.304688 106.363281 C 132.304688 106.363281 140.132812 104.445312 145.867188 106.238281 C 137.007812 104.980469 125.222656 112.261719 121.855469 127.980469 C 117.964844 146.144531 123.910156 177.9375 121.640625 177.9375 C 119.367188 177.9375 111.257812 166.582031 115.152344 197.074219 C 119.046875 227.570312 124.234375 204.210938 129.425781 232.757812 C 134.613281 261.304688 145.644531 261.71875 145.644531 268.925781 C 145.644531 276.136719 139.15625 296.59375 139.15625 296.59375 C 139.15625 296.59375 132.183594 294.878906 129.265625 303.152344 C 126.34375 311.425781 108.230469 307.910156 74.492188 319.585938 C 74.492188 319.585938 71.574219 319.585938 71.007812 322.585938 C 70.847656 323.417969 69.542969 325.753906 67.648438 329.242188 C 99.976562 356.589844 141.792969 373.082031 187.453125 373.082031 " fill-opacity="1" fill-rule="nonzero"/></g></svg>